<mxfile host="app.diagrams.net" modified="2023-03-24T16:51:14.780Z" agent="5.0 (Macintosh; Intel Mac OS X 10_15_7) AppleWebKit/537.36 (KHTML, like Gecko) Chrome/111.0.0.0 Safari/537.36" etag="f5yn0dj27ui8YMxGxxlx" version="21.0.10" type="github">
  <diagram name="Page-1" id="EsT10xzCCeYcYSkJDmvW">
    <mxGraphModel dx="2074" dy="1156" grid="1" gridSize="10" guides="1" tooltips="1" connect="1" arrows="1" fold="1" page="1" pageScale="1" pageWidth="850" pageHeight="1100" math="0" shadow="0">
      <root>
        <mxCell id="0" />
        <mxCell id="1" parent="0" />
        <mxCell id="1WPlRurY3LXXzc_wm_BW-7" value="" style="edgeStyle=orthogonalEdgeStyle;rounded=0;orthogonalLoop=1;jettySize=auto;html=1;" parent="1" source="1WPlRurY3LXXzc_wm_BW-1" target="1WPlRurY3LXXzc_wm_BW-4" edge="1">
          <mxGeometry relative="1" as="geometry" />
        </mxCell>
        <mxCell id="1WPlRurY3LXXzc_wm_BW-1" value="Stream launch Kernel&lt;br&gt;Device Allreduce" style="rounded=0;whiteSpace=wrap;html=1;" parent="1" vertex="1">
          <mxGeometry x="200" y="640" width="120" height="40" as="geometry" />
        </mxCell>
        <mxCell id="1WPlRurY3LXXzc_wm_BW-3" value="" style="edgeStyle=orthogonalEdgeStyle;rounded=0;orthogonalLoop=1;jettySize=auto;html=1;" parent="1" source="1WPlRurY3LXXzc_wm_BW-2" target="1WPlRurY3LXXzc_wm_BW-1" edge="1">
          <mxGeometry relative="1" as="geometry" />
        </mxCell>
        <mxCell id="1WPlRurY3LXXzc_wm_BW-2" value="SdaaLaunchHost&lt;br&gt;Card Barrier" style="rounded=0;whiteSpace=wrap;html=1;" parent="1" vertex="1">
          <mxGeometry x="200" y="560" width="120" height="40" as="geometry" />
        </mxCell>
        <mxCell id="1WPlRurY3LXXzc_wm_BW-6" value="" style="edgeStyle=orthogonalEdgeStyle;rounded=0;orthogonalLoop=1;jettySize=auto;html=1;" parent="1" source="1WPlRurY3LXXzc_wm_BW-4" target="1WPlRurY3LXXzc_wm_BW-5" edge="1">
          <mxGeometry relative="1" as="geometry" />
        </mxCell>
        <mxCell id="Y7l1YH2GiNnYRPJC3hIs-2" value="" style="edgeStyle=orthogonalEdgeStyle;rounded=0;orthogonalLoop=1;jettySize=auto;html=1;" edge="1" parent="1" source="1WPlRurY3LXXzc_wm_BW-4" target="Y7l1YH2GiNnYRPJC3hIs-1">
          <mxGeometry relative="1" as="geometry" />
        </mxCell>
        <mxCell id="1WPlRurY3LXXzc_wm_BW-4" value="SdaaLaunchHost&lt;br&gt;Create Task" style="rounded=0;whiteSpace=wrap;html=1;" parent="1" vertex="1">
          <mxGeometry x="200" y="720" width="120" height="40" as="geometry" />
        </mxCell>
        <mxCell id="Y7l1YH2GiNnYRPJC3hIs-9" value="" style="edgeStyle=orthogonalEdgeStyle;rounded=0;orthogonalLoop=1;jettySize=auto;html=1;" edge="1" parent="1" source="1WPlRurY3LXXzc_wm_BW-5">
          <mxGeometry relative="1" as="geometry">
            <mxPoint x="460" y="800" as="targetPoint" />
            <Array as="points">
              <mxPoint x="460" y="770" />
              <mxPoint x="460" y="770" />
            </Array>
          </mxGeometry>
        </mxCell>
        <mxCell id="1WPlRurY3LXXzc_wm_BW-5" value="Wait New task" style="rounded=0;whiteSpace=wrap;html=1;" parent="1" vertex="1">
          <mxGeometry x="400" y="720" width="120" height="40" as="geometry" />
        </mxCell>
        <mxCell id="Y7l1YH2GiNnYRPJC3hIs-12" value="" style="edgeStyle=orthogonalEdgeStyle;rounded=0;orthogonalLoop=1;jettySize=auto;html=1;" edge="1" parent="1" source="1WPlRurY3LXXzc_wm_BW-8" target="Y7l1YH2GiNnYRPJC3hIs-11">
          <mxGeometry relative="1" as="geometry" />
        </mxCell>
        <mxCell id="1WPlRurY3LXXzc_wm_BW-8" value="Add Task&lt;br&gt;Host Allreduce" style="rounded=0;whiteSpace=wrap;html=1;" parent="1" vertex="1">
          <mxGeometry x="400" y="880" width="120" height="40" as="geometry" />
        </mxCell>
        <mxCell id="Y7l1YH2GiNnYRPJC3hIs-1" value="SdaaLaunchHost&lt;br&gt;Wait Task" style="rounded=0;whiteSpace=wrap;html=1;" vertex="1" parent="1">
          <mxGeometry x="200" y="800" width="120" height="40" as="geometry" />
        </mxCell>
        <mxCell id="Y7l1YH2GiNnYRPJC3hIs-4" value="" style="edgeStyle=orthogonalEdgeStyle;rounded=0;orthogonalLoop=1;jettySize=auto;html=1;" edge="1" parent="1" source="Y7l1YH2GiNnYRPJC3hIs-3" target="1WPlRurY3LXXzc_wm_BW-2">
          <mxGeometry relative="1" as="geometry" />
        </mxCell>
        <mxCell id="Y7l1YH2GiNnYRPJC3hIs-6" value="" style="edgeStyle=orthogonalEdgeStyle;rounded=0;orthogonalLoop=1;jettySize=auto;html=1;" edge="1" parent="1" source="Y7l1YH2GiNnYRPJC3hIs-3" target="Y7l1YH2GiNnYRPJC3hIs-5">
          <mxGeometry relative="1" as="geometry" />
        </mxCell>
        <mxCell id="Y7l1YH2GiNnYRPJC3hIs-3" value="TCCL&lt;br&gt;Init" style="rounded=0;whiteSpace=wrap;html=1;" vertex="1" parent="1">
          <mxGeometry x="200" y="480" width="120" height="40" as="geometry" />
        </mxCell>
        <mxCell id="Y7l1YH2GiNnYRPJC3hIs-8" value="" style="edgeStyle=orthogonalEdgeStyle;rounded=0;orthogonalLoop=1;jettySize=auto;html=1;" edge="1" parent="1" source="Y7l1YH2GiNnYRPJC3hIs-5" target="Y7l1YH2GiNnYRPJC3hIs-7">
          <mxGeometry relative="1" as="geometry" />
        </mxCell>
        <mxCell id="Y7l1YH2GiNnYRPJC3hIs-5" value="Device&lt;br&gt;Thread" style="rounded=0;whiteSpace=wrap;html=1;" vertex="1" parent="1">
          <mxGeometry x="400" y="480" width="120" height="40" as="geometry" />
        </mxCell>
        <mxCell id="Y7l1YH2GiNnYRPJC3hIs-7" value="Node&lt;br&gt;Leader Thread" style="rounded=0;whiteSpace=wrap;html=1;" vertex="1" parent="1">
          <mxGeometry x="600" y="480" width="120" height="40" as="geometry" />
        </mxCell>
        <mxCell id="Y7l1YH2GiNnYRPJC3hIs-10" value="" style="edgeStyle=orthogonalEdgeStyle;rounded=0;orthogonalLoop=1;jettySize=auto;html=1;exitX=0.5;exitY=1;exitDx=0;exitDy=0;entryX=0.5;entryY=0;entryDx=0;entryDy=0;" edge="1" parent="1" source="Y7l1YH2GiNnYRPJC3hIs-5" target="1WPlRurY3LXXzc_wm_BW-5">
          <mxGeometry relative="1" as="geometry">
            <mxPoint x="470" y="770" as="sourcePoint" />
            <mxPoint x="470" y="810" as="targetPoint" />
            <Array as="points">
              <mxPoint x="460" y="630" />
              <mxPoint x="460" y="630" />
            </Array>
          </mxGeometry>
        </mxCell>
        <mxCell id="Y7l1YH2GiNnYRPJC3hIs-11" value="wait New Task" style="rounded=0;whiteSpace=wrap;html=1;" vertex="1" parent="1">
          <mxGeometry x="600" y="880" width="120" height="40" as="geometry" />
        </mxCell>
        <mxCell id="Y7l1YH2GiNnYRPJC3hIs-15" value="" style="edgeStyle=orthogonalEdgeStyle;rounded=0;orthogonalLoop=1;jettySize=auto;html=1;" edge="1" parent="1" source="Y7l1YH2GiNnYRPJC3hIs-13" target="1WPlRurY3LXXzc_wm_BW-8">
          <mxGeometry relative="1" as="geometry" />
        </mxCell>
        <mxCell id="Y7l1YH2GiNnYRPJC3hIs-13" value="Intra Host&lt;br style=&quot;border-color: var(--border-color);&quot;&gt;Scatter Allreduce" style="rounded=0;whiteSpace=wrap;html=1;" vertex="1" parent="1">
          <mxGeometry x="400" y="800" width="120" height="40" as="geometry" />
        </mxCell>
      </root>
    </mxGraphModel>
  </diagram>
</mxfile>
